<svg width="25" height="31" viewBox="0 0 25 31" fill="none" xmlns="http://www.w3.org/2000/svg">
<rect y="0.705078" width="24.3" height="24.3" fill="#740022"/>
<path d="M2 31V22H10L2 31Z" fill="#740022"/>
<path d="M18.1058 19.2883C18.8415 19.2883 19.4402 18.7052 19.4402 17.9888V15.8582C19.4402 15.5784 19.2564 15.3301 18.9841 15.242L15.7465 14.1912C15.5517 14.1278 15.3366 14.1557 15.1653 14.2667L13.4354 15.3899C11.3153 14.5643 9.56823 12.9063 8.7205 10.8417L9.87386 9.15717C9.98784 8.99017 10.0165 8.78154 9.95135 8.59119L8.87236 5.43829C8.78184 5.17316 8.52694 4.99414 8.23956 4.99414H6.05169C5.31603 4.99414 4.71729 5.57721 4.71729 6.29361C4.71729 13.4591 10.7477 19.2883 18.1058 19.2883Z" fill="white"/>
</svg>
