<svg width="19" height="23" viewBox="0 0 19 23" fill="none" xmlns="http://www.w3.org/2000/svg">
<path d="M0.473507 0.122325C0.180822 0.288794 0 0.599577 0 0.936103V21.4793C0 21.9964 0.419214 22.4154 0.936095 22.4154C1.45298 22.4154 1.87219 21.9964 1.87219 21.4793V2.58285L15.7315 10.8334L5.53997 17.3997C5.10546 17.6797 4.98002 18.259 5.26007 18.6935C5.54028 19.1282 6.11941 19.2536 6.55407 18.9734L18.0158 11.5887C18.2882 11.4132 18.4504 11.1093 18.4447 10.7852C18.4389 10.4612 18.266 10.1632 17.9875 9.99734L1.41491 0.131686C1.12534 -0.0403997 0.766193 -0.0441437 0.473507 0.122325Z" fill="#30313B"/>
</svg>
